<svg width="38" height="34" viewBox="0 0 38 34" fill="none" xmlns="http://www.w3.org/2000/svg">
<g clip-path="url(#clip0_183_13334)">
<path d="M1.86798 19.462C2.31102 19.0588 2.83669 18.8051 3.39916 18.6726C4.31281 18.4574 5.32504 18.5255 6.35474 18.6657C8.41422 18.9462 10.5725 19.4944 11.9408 19.0519C13.2251 18.6365 14.0058 17.9057 14.4072 17.0712C14.5799 16.7123 14.6823 16.3304 14.7195 15.9407C12.1629 14.8752 8.84883 14.9067 6.55701 16.3304C8.55253 14.3928 11.4877 13.5787 14.5039 14.3538L14.6308 14.7304C14.6029 14.6142 14.569 14.4988 14.5302 14.3841C13.9236 12.5915 12.0108 11.0527 9.10624 11.5052C7.77174 11.7131 5.86967 12.5624 4.3647 14.0687C3.06281 15.3719 2.04861 17.1486 1.86805 19.462L1.86798 19.462ZM9.61666 7.88115C10.0971 7.94094 10.5461 8.12387 10.9501 8.39407C11.6562 8.86643 12.2529 9.57536 12.8164 10.3388C13.9433 11.8657 14.975 13.6132 16.0716 14.2278C17.1104 14.8099 18.0123 14.8695 18.7406 14.624C19.0581 14.517 19.3448 14.3506 19.595 14.135C18.6122 11.8205 16.5322 9.69005 14.277 9.06629C16.6517 9.18354 18.9544 10.5951 20.3888 13.0289C21.0236 11.5515 20.7235 9.4077 18.6773 7.80962C17.7292 7.06924 16.0471 6.34552 14.2315 6.28488C12.6903 6.23344 11.0581 6.64104 9.61678 7.88112L9.61666 7.88115ZM11.8803 25.9114C13.6921 26.4031 15.3384 26.0569 16.7142 25.3343C18.3347 24.4831 19.5644 23.0888 20.1218 22.0021C21.3248 19.6567 20.7226 17.5834 19.5454 16.5228C19.2372 19.3572 17.7257 21.6462 15.6215 22.7936C17.4112 21.2391 18.4282 18.3965 18.3755 15.8679C18.0611 15.7822 17.7333 15.7564 17.4021 15.7987C16.6421 15.8956 15.8484 16.3469 15.1443 17.33C14.4011 18.3677 14.1787 20.4032 13.7796 22.2812C13.5801 23.2202 13.3289 24.1241 12.8815 24.8618C12.6253 25.2841 12.2916 25.6463 11.8804 25.9113L11.8803 25.9114Z" fill="#4AC52B"/>
</g>
<path d="M28.4386 26.6663C27.2097 26.6663 26.1054 26.3902 25.1259 25.8381C24.1463 25.2682 23.3715 24.4489 22.8016 23.3802C22.2316 22.3116 21.9466 21.0203 21.9466 19.5064C21.9466 17.9747 22.2316 16.6834 22.8016 15.6326C23.3893 14.5639 24.173 13.7535 25.1526 13.2014C26.1322 12.6493 27.2275 12.3732 28.4386 12.3732C29.7744 12.3732 30.9678 12.676 32.0186 13.2816C33.0872 13.8693 33.9243 14.6975 34.5299 15.7662C35.1355 16.8348 35.4382 18.0815 35.4382 19.5064C35.4382 20.9134 35.1355 22.1602 34.5299 23.2466C33.9243 24.3153 33.0872 25.1524 32.0186 25.7579C30.9678 26.3635 29.7744 26.6663 28.4386 26.6663ZM21.1986 26.5327V6.70942H23.0954V16.6478L22.8283 19.4797L23.0153 22.3116V26.5327H21.1986ZM28.3051 24.9832C29.3025 24.9832 30.193 24.7606 30.9767 24.3153C31.7603 23.8522 32.3837 23.211 32.8468 22.3917C33.3099 21.5546 33.5414 20.5929 33.5414 19.5064C33.5414 18.4021 33.3099 17.4404 32.8468 16.6211C32.3837 15.8018 31.7603 15.1695 30.9767 14.7242C30.193 14.2612 29.3025 14.0296 28.3051 14.0296C27.3077 14.0296 26.4082 14.2612 25.6067 14.7242C24.8231 15.1695 24.1997 15.8018 23.7366 16.6211C23.2914 17.4404 23.0687 18.4021 23.0687 19.5064C23.0687 20.5929 23.2914 21.5546 23.7366 22.3917C24.1997 23.211 24.8231 23.8522 25.6067 24.3153C26.4082 24.7606 27.3077 24.9832 28.3051 24.9832Z" fill="#00243D"/>
<defs>
<clipPath id="clip0_183_13334">
<rect width="21.5807" height="20.3915" fill="white" transform="translate(2.13086 27.9092) rotate(-94.5)"/>
</clipPath>
</defs>
</svg>
