<svg width="62" height="56" viewBox="0 0 62 56" fill="none" xmlns="http://www.w3.org/2000/svg">
<g clip-path="url(#clip0_70_52)">
<path d="M2.04736 32.6247C2.80151 31.9651 3.68964 31.557 4.63582 31.3521C6.17275 31.0194 7.8664 31.1619 9.58718 31.4252C13.0289 31.9522 16.628 32.9283 18.9333 32.2295C21.0971 31.5735 22.4267 30.3769 23.1238 28.9968C23.4239 28.4031 23.6067 27.7691 23.6806 27.1203C19.4295 25.2699 13.8769 25.2275 9.99536 27.5362C13.3958 24.3619 18.3369 23.0882 23.3666 24.4674L23.5679 25.0992C23.5246 24.9046 23.4714 24.7111 23.4097 24.5187C22.4468 21.5116 19.2882 18.8904 14.4091 19.5618C12.1674 19.8703 8.95582 21.2323 6.38999 23.7014C4.17037 25.8376 2.41865 28.7717 2.04749 32.6248L2.04736 32.6247ZM15.3717 13.5323C16.1747 13.6457 16.9216 13.9637 17.5903 14.4259C18.7591 15.234 19.7376 16.4334 20.6589 17.7229C22.5014 20.3018 24.1778 23.2457 25.9965 24.3022C27.7193 25.3028 29.2286 25.428 30.4558 25.0395C30.9908 24.8701 31.476 24.6009 31.9017 24.2484C30.3239 20.3601 26.9029 16.7473 23.1434 15.6424C27.118 15.906 30.9336 18.3262 33.2642 22.4264C34.3715 19.9805 33.9325 16.3965 30.5521 13.6726C28.9858 12.4106 26.1895 11.1554 23.1498 11.0022C20.5695 10.8723 17.8233 11.5053 15.3719 13.5322L15.3717 13.5323ZM18.6284 43.668C21.6488 44.5401 24.4169 44.0098 26.7432 42.8441C29.4832 41.4709 31.5844 39.1807 32.5504 37.3843C34.6354 33.507 33.6882 30.032 31.7476 28.2294C31.1471 32.9478 28.5471 36.722 24.9882 38.5755C28.0324 36.0341 29.8205 31.3223 29.8073 27.1035C29.2831 26.9516 28.7348 26.8993 28.1788 26.9602C26.9027 27.1002 25.5596 27.83 24.3509 29.4495C23.0752 31.1589 22.6421 34.5473 21.9178 37.668C21.5558 39.2283 21.1081 40.7287 20.3366 41.9462C19.895 42.6431 19.3253 43.2376 18.6285 43.6679L18.6284 43.668Z" fill="#4AC52B"/>
</g>
<path d="M46.6584 44.8016C44.5994 44.8016 42.7492 44.339 41.1079 43.4139C39.4666 42.459 38.1685 41.0863 37.2136 39.2958C36.2587 37.5053 35.7812 35.3418 35.7812 32.8053C35.7812 30.239 36.2587 28.0755 37.2136 26.3148C38.1984 24.5243 39.5114 23.1665 41.1527 22.2415C42.794 21.3164 44.6292 20.8538 46.6584 20.8538C48.8965 20.8538 50.8959 21.3611 52.6565 22.3757C54.447 23.3605 55.8496 24.7481 56.8642 26.5386C57.8788 28.3291 58.3861 30.418 58.3861 32.8053C58.3861 35.1628 57.8788 37.2517 56.8642 39.072C55.8496 40.8625 54.447 42.265 52.6565 43.2797C50.8959 44.2943 48.8965 44.8016 46.6584 44.8016ZM34.5279 44.5778V11.3643H37.706V28.0158L37.2584 32.7606L37.5717 37.5053V44.5778H34.5279ZM46.4346 41.9816C48.1057 41.9816 49.5978 41.6085 50.9108 40.8625C52.2238 40.0866 53.2683 39.0123 54.0442 37.6396C54.82 36.2371 55.208 34.6256 55.208 32.8053C55.208 30.9552 54.82 29.3437 54.0442 27.971C53.2683 26.5983 52.2238 25.5389 50.9108 24.7929C49.5978 24.017 48.1057 23.6291 46.4346 23.6291C44.7635 23.6291 43.2565 24.017 41.9136 24.7929C40.6006 25.5389 39.5562 26.5983 38.7803 27.971C38.0343 29.3437 37.6612 30.9552 37.6612 32.8053C37.6612 34.6256 38.0343 36.2371 38.7803 37.6396C39.5562 39.0123 40.6006 40.0866 41.9136 40.8625C43.2565 41.6085 44.7635 41.9816 46.4346 41.9816Z" fill="#C2BEBE"/>
<defs>
<clipPath id="clip0_70_52">
<rect width="35.997" height="34.1656" fill="white" transform="translate(2.23657 46.7208) rotate(-93.5)"/>
</clipPath>
</defs>
</svg>
