<svg width="193" height="175" viewBox="0 0 193 175" fill="none" xmlns="http://www.w3.org/2000/svg">
<g clip-path="url(#clip0_183_13327)">
<path d="M6.76622 102.39C9.16461 100.292 11.9891 98.9945 14.9981 98.343C19.8859 97.285 25.2722 97.7381 30.7447 98.5755C41.69 100.251 53.1362 103.355 60.4677 101.133C67.349 99.0471 71.5773 95.2417 73.7945 90.8524C74.7487 88.9644 75.33 86.9481 75.5651 84.8847C62.0458 79 44.3869 78.8653 32.0428 86.2076C42.8569 76.1123 58.5709 72.0618 74.5665 76.4479L75.2069 78.4572C75.0691 77.8382 74.8998 77.2228 74.7037 76.611C71.6414 67.0477 61.5963 58.7117 46.0795 60.8469C38.9503 61.8281 28.7368 66.1595 20.5768 74.0119C13.5179 80.8054 7.94702 90.1365 6.76663 102.39L6.76622 102.39ZM49.141 41.6715C51.6947 42.0324 54.0698 43.0436 56.1965 44.5136C59.9135 47.0834 63.0253 50.8979 65.9554 54.9987C71.8151 63.2002 77.1464 72.5628 82.9302 75.9225C88.4093 79.1045 93.209 79.503 97.112 78.2673C98.8134 77.7286 100.357 76.8724 101.71 75.7514C96.6925 63.3856 85.8127 51.8962 73.8568 48.3822C86.497 49.2206 98.6315 56.9174 106.043 69.9572C109.565 62.1786 108.169 50.7806 97.418 42.1179C92.4371 38.1045 83.5439 34.1126 73.8772 33.6255C65.6712 33.2121 56.9375 35.2253 49.1416 41.6714L49.141 41.6715ZM59.498 137.51C69.1035 140.284 77.9069 138.598 85.3048 134.89C94.0186 130.523 100.701 123.24 103.773 117.527C110.404 105.196 107.392 94.1447 101.22 88.4121C99.3105 103.418 91.0418 115.421 79.7236 121.315C89.4048 113.233 95.0913 98.248 95.0495 84.8315C93.3824 84.3483 91.6387 84.1819 89.8704 84.3758C85.8122 84.8208 81.5409 87.1418 77.697 92.2921C73.6398 97.7286 72.2625 108.505 69.9589 118.429C68.8076 123.391 67.384 128.163 64.9306 132.035C63.5261 134.251 61.7143 136.142 59.4983 137.51L59.498 137.51Z" fill="#4AC52B"/>
</g>
<path d="M148.643 139.185C142.094 139.185 136.211 137.714 130.991 134.772C125.771 131.735 121.643 127.369 118.606 121.675C115.569 115.981 114.051 109.1 114.051 101.034C114.051 92.8721 115.569 85.9916 118.606 80.3923C121.738 74.6982 125.914 70.3801 131.133 67.4381C136.353 64.4961 142.189 63.0251 148.643 63.0251C155.76 63.0251 162.119 64.6385 167.718 67.8652C173.412 70.9969 177.873 75.4099 181.1 81.1041C184.326 86.7983 185.94 93.4415 185.94 101.034C185.94 108.531 184.326 115.174 181.1 120.963C177.873 126.657 173.412 131.118 167.718 134.345C162.119 137.571 155.76 139.185 148.643 139.185ZM110.065 138.473V32.846H120.172V85.8018L118.748 100.891L119.745 115.981V138.473H110.065ZM147.931 130.216C153.246 130.216 157.991 129.03 162.166 126.657C166.342 124.19 169.664 120.774 172.131 116.408C174.599 111.948 175.832 106.823 175.832 101.034C175.832 95.1497 174.599 90.025 172.131 85.6594C169.664 81.2939 166.342 77.9249 162.166 75.5523C157.991 73.0848 153.246 71.8511 147.931 71.8511C142.616 71.8511 137.824 73.0848 133.553 75.5523C129.377 77.9249 126.056 81.2939 123.588 85.6594C121.216 90.025 120.03 95.1497 120.03 101.034C120.03 106.823 121.216 111.948 123.588 116.408C126.056 120.774 129.377 124.19 133.553 126.657C137.824 129.03 142.616 130.216 147.931 130.216Z" fill="#C2BEBE"/>
<defs>
<clipPath id="clip0_183_13327">
<rect width="114.479" height="108.655" fill="white" transform="translate(7.36816 147.219) rotate(-93.5)"/>
</clipPath>
</defs>
</svg>
