<svg width="16" height="17" viewBox="0 0 16 17" fill="none" xmlns="http://www.w3.org/2000/svg">
<g clip-path="url(#clip0_929_2915)">
<path d="M8.00146 0.771729H7.53497H7.52672H7.47147H7.46297H7.45422H7.44547H7.43997H7.43597H7.43047H7.42647H7.42097H7.41747H7.41147H7.40222H7.39322H7.38421H7.37497H7.36572L7.34071 0.773729H7.33121H7.32197H7.31247C7.12697 0.790479 6.94372 0.812479 6.76247 0.840229L6.83972 1.33423C7.22472 1.28373 7.61321 1.26273 8.00146 1.27173V0.771729ZM5.54147 1.15698C5.14472 1.28473 4.75872 1.44373 4.38697 1.63198L4.61197 2.07798C4.96047 1.90123 5.32222 1.75223 5.69396 1.63198L5.54046 1.15698H5.54147ZM3.32096 2.28198C2.98296 2.52648 2.66471 2.79698 2.36871 3.09098L2.72071 3.44598C2.99846 3.17073 3.29696 2.91748 3.61371 2.68848L3.32096 2.28323V2.28198ZM1.55271 4.03648C1.48596 4.12798 1.42071 4.22098 1.35646 4.31523L1.34846 4.32723L1.34321 4.33523L1.34046 4.33923L1.33521 4.34698L1.33271 4.35073L1.33021 4.35448L1.32771 4.35823L1.32271 4.36573L1.32021 4.36948L1.31771 4.37323L1.31521 4.37698L1.31271 4.38073L1.31046 4.38423L1.30821 4.38773L1.30596 4.39123L1.30346 4.39498L1.30121 4.39848L1.29896 4.40173L1.29671 4.40523L1.29446 4.40873L1.29221 4.41198L1.28996 4.41548L1.28796 4.41873L1.28571 4.42223L1.28346 4.42573L1.28146 4.42873L1.27921 4.43223L1.27696 4.43573L1.27471 4.43898L1.27246 4.44248L1.27046 4.44573L1.26821 4.44923L1.26596 4.45273L1.26421 4.45573L1.26221 4.45898L1.26046 4.46173L1.25871 4.46473V4.46598L1.25671 4.46923L1.25496 4.47198L1.25296 4.47523L1.25096 4.47823L1.24921 4.48098L1.24721 4.48423L1.24546 4.48673L1.24346 4.48973V4.49098L1.24146 4.49423L1.23996 4.49673L1.23796 4.49998L1.23621 4.50273V4.50423L1.23471 4.50673L1.23271 4.50998V4.51123L1.23121 4.51348V4.51498L1.22946 4.51773V4.51923L1.20146 4.55673V4.55798L1.19996 4.56023V4.56148L1.19796 4.56473V4.56623L1.19646 4.56848V4.57048L1.19496 4.57298V4.57448L1.19296 4.57748V4.57873L1.19146 4.58123L1.18946 4.58448V4.58598L1.18771 4.58873V4.59023L1.18621 4.59273V4.59398L1.18421 4.59698V4.59823L1.18271 4.60073V4.60223L1.18096 4.60498V4.60648L1.17896 4.60948V4.61098L1.17746 4.61323V4.61448L1.17546 4.61748V4.61898L1.17371 4.62198L1.17196 4.62473V4.62598L1.16996 4.62923V4.63048L1.16846 4.63298V4.63473L1.16671 4.63748V4.63898L1.16471 4.64223V4.64348L1.16346 4.64573V4.64723L1.16171 4.65023V4.65173L1.16021 4.65423V4.65598L1.15871 4.65848V4.65998L1.15671 4.66323V4.66448L1.15521 4.66673V4.66823L1.15346 4.67123V4.67273L1.15196 4.67523V4.67723L1.15071 4.67948V4.68098L1.14896 4.68398V4.68573V4.68773V4.68973L1.14746 4.69223V4.69373L1.14571 4.69698V4.69823L1.14421 4.70048V4.70173L1.14221 4.70498V4.70623L1.14046 4.70898V4.71073L1.13896 4.71323V4.71473L1.13721 4.71773V4.71923L1.13596 4.72148V4.72323L1.13421 4.72598V4.72748L1.13246 4.73073V4.73223L1.13121 4.73448V4.73598L1.12946 4.73898V4.74048L1.12796 4.74298V4.74473L1.12646 4.74723V4.74873L1.12471 4.75173V4.75323L1.12346 4.75548V4.75698L1.12171 4.75998V4.76148L1.11996 4.76423V4.76573L1.11846 4.76823V4.76948L1.11671 4.77273V4.77398L1.11521 4.77673V4.77823L1.11346 4.78098V4.78248L1.11171 4.78573V4.78698L1.11021 4.78948L1.10846 4.79273V4.79398L1.10671 4.79698L1.10521 4.79973V4.80123L1.10346 4.80448V4.80573L1.10196 4.80848V4.80973L1.10021 4.81273V4.81423L1.09846 4.81748V4.81873L1.09721 4.82123V4.82248L1.09546 4.82573V4.82698L1.09371 4.82998V4.83123L1.09221 4.83398V4.83548L1.09046 4.83873L1.08896 4.84123L1.08721 4.84448V4.84573L1.08546 4.84898V4.85023L1.08396 4.85273L1.08221 4.85598L1.08046 4.85898L1.07871 4.86223L1.07671 4.86573L1.07521 4.86873L1.07321 4.87223L1.07146 4.87548L1.06996 4.87848L1.00146 4.89673L0.999715 4.89973L0.997715 4.90323L0.995715 4.90673L0.993965 4.90998L0.991965 4.91373L0.989965 4.91723L0.988215 4.92048L0.986215 4.92398L0.984215 4.92748L0.982215 4.93123L0.980215 4.93498L0.978465 4.93848L0.976215 4.94248L0.971965 4.95023L0.969965 4.95398L0.967965 4.95773L0.965965 4.96173L0.961715 4.96973L0.959715 4.97373L0.957715 4.97773L0.955465 4.98173L0.953215 4.98573L0.950965 4.98973L0.948965 4.99373L0.944715 5.00173L0.942715 5.00573L0.940715 5.00973L0.938465 5.01373L0.936215 5.01773L0.933965 5.02173L0.931715 5.02598L0.927215 5.03423L0.924965 5.03848L0.922715 5.04273L0.920465 5.04698L0.915965 5.05548L0.913715 5.05973L0.909215 5.06823L0.904715 5.07673L1.34871 5.30673C1.52846 4.95973 1.73521 4.62723 1.96671 4.31248L1.55271 4.03648ZM0.407965 6.24673C0.367215 6.36898 0.329465 6.49273 0.294715 6.61773L0.292215 6.62698L0.289715 6.63623L0.285965 6.65023L0.283465 6.65948L0.280965 6.66848V6.67298V6.67748V6.68198L0.278715 6.69073V6.69498V6.69898V6.70323V6.70723V6.71148V6.71548V6.71948V6.72348V6.72698V6.73098V6.73448V6.73848V6.74248V6.74598V6.74973V6.75273V6.75398V6.75773V6.75898V6.76223V6.76598V6.76748V6.77073V6.77248V6.77523V6.77698V6.78048V6.78198V6.78473V6.78623V6.78973V6.79148V6.79423V6.79623V6.79898V6.80073V6.80373V6.80573V6.80798V6.80998V6.81323V6.81523V6.81748V6.81998V6.82248V6.82473V6.82648V6.82998V6.83198V6.83398V6.83623V6.83948V6.84148V6.84348V6.84673V6.84898V6.85073V6.85348V6.85598V6.85823V6.86023V6.86348V6.86548V6.86773V6.86948V6.87298V6.87473V6.87698V6.88023V6.88248V6.88398V6.88773V6.88948V6.89173V6.89323V6.89698V6.89848V6.90073V6.90248V6.90623V6.90773V6.91173V6.91298V6.91548V6.91698V6.92098V6.92223V6.92473V6.92623V6.93023V6.94673V6.94923V6.95448V6.95923V6.96173V6.96323V6.96723V6.97173V6.97423V6.97873L0.201465 6.98873V6.99398V6.99673V7.00148V7.00423V7.00898L0.193465 7.02173V7.02298V7.02748V7.02998V7.03423V7.03548V7.03798V7.04223V7.04673L0.191715 7.05473V7.05598V7.05998V7.06148V7.06398V7.06548V7.06973V7.07223V7.07698V7.07848V7.08248V7.08398V7.08648V7.08798V7.09223V7.09673V7.09923V7.10073V7.10448V7.10598V7.10823V7.11073V7.11373V7.11548V7.11873V7.12073V7.12298V7.12473V7.12823V7.12998V7.13223V7.13423V7.13748V7.13948V7.14173V7.14498V7.14723V7.14923V7.15223V7.15448V7.15648V7.15898V7.16148V7.16423V7.16598V7.16923V7.17123V7.17373V7.17548V7.17898V7.18073V7.18348V7.18498V7.18873V7.19048V7.19348V7.19523V7.19823V7.19973V7.20348V7.20498V7.20798V7.20923V7.21298V7.21423V7.21723V7.22098V7.22173V7.22548V7.22873V7.23273V7.23648V7.24073V7.24473V7.24923V7.25373V7.25798V7.26248V7.26723V7.27198L0.189965 7.28123C0.179465 7.33748 0.169465 7.39423 0.159965 7.45098L0.653215 7.53248C0.716965 7.14698 0.810715 6.76723 0.933715 6.39648L0.458715 6.23873L0.407965 6.24673ZM0.00146484 8.70373V8.71198V8.74848V8.77173V8.82298V9.25423V9.26248V9.29198V9.29673V9.30498V9.33823V9.34648V9.35473V9.36873V9.37373V9.37823V9.38348V9.38748V9.39548V9.39973V9.40498V9.42873V9.43673V9.44123V9.44598V9.50173V9.50598V9.61398V9.61773V9.62323V9.62698V9.63248V9.63598V9.63948V9.64673V9.65048V9.65598V9.65973V9.66498V9.66898V9.67248V9.67673V9.68073V9.68923V9.69323V9.69748V9.70148V9.71023V9.71898V9.72773C0.0102148 9.80048 0.0197148 9.87273 0.0304648 9.94473L0.525215 9.87173C0.490715 9.50623 0.482715 9.13848 0.501465 8.77173V8.70798L0.00146484 8.70373ZM0.842965 11.0175L0.365965 11.1675C0.385715 11.23 0.405965 11.2922 0.426965 11.3542L0.439715 11.3912C0.450465 11.422 0.461215 11.4527 0.472215 11.4835C0.575715 11.771 0.695715 12.0522 0.831715 12.3257L1.27946 12.1032C1.10571 11.7535 0.959715 11.3905 0.842965 11.0175ZM1.88071 13.1077L1.47346 13.3967C1.71371 13.7352 1.97996 14.0547 2.26971 14.3522L2.27296 14.3557L2.63096 14.0057C2.35796 13.7255 2.10721 13.4247 1.88096 13.1057L1.88071 13.1077ZM3.51096 14.7797L3.21096 15.1797C3.46271 15.3682 3.72546 15.5417 3.99771 15.6995L4.01072 15.707L4.01822 15.7112L4.02272 15.7137L4.02996 15.718L4.03446 15.7205L4.03696 15.7217L4.04121 15.724L4.04497 15.7262H4.04721L4.05071 15.7282H4.05297H4.05472L4.05771 15.73H4.05922L4.06247 15.7317H4.06396H4.06597H4.06746L4.07047 15.7335H4.07222H4.07397L4.07696 15.7352H4.07871H4.08072L4.08322 15.7365H4.08522H4.08697L4.08996 15.7382H4.09146H4.09372H4.09521L4.09846 15.74H4.09997L4.10247 15.7415H4.10447L4.10672 15.7427H4.10821L4.11146 15.7445H4.11297L4.11547 15.7457H4.11722L4.11997 15.7472H4.12172L4.12471 15.749H4.12597L4.12847 15.7505L4.13171 15.7522L4.13496 15.754L4.13797 15.7557L4.14147 15.7577L4.14446 15.7595L4.14796 15.7615L4.15146 15.7635L4.15472 15.7652L4.15846 15.7672L4.16222 15.7692L4.16621 15.7715L4.17046 15.7737L4.17447 15.776L4.17846 15.7782L4.18247 15.7805L4.18647 15.7827L4.19046 15.785L4.19872 15.7895L4.20271 15.7917L4.20696 15.794L4.21122 15.7962L4.21947 15.8007L4.22371 15.803L4.23221 15.8075L4.24497 15.8142L4.50146 15.4062C4.15596 15.2235 3.82546 15.014 3.51246 14.7797H3.51096ZM5.57447 15.8717L5.41271 16.345C5.72471 16.4515 6.04321 16.5387 6.36596 16.6057L6.37546 16.6077L6.38496 16.6097H6.38972L6.39872 16.6115L6.40746 16.6132H6.41172H6.41572H6.41997H6.42396H6.42822H6.43247H6.43597H6.43997H6.44122H6.44447H6.44822H6.44972H6.45297H6.45446H6.45747H6.45922H6.46272H6.46422H6.46671H6.47647H6.47997H6.48172H6.48422H6.48646H6.48947H6.49122H6.49372H6.49672H6.49897H6.50097H6.50347H6.50622H6.50797H6.51047H6.51322H6.51572H6.51722H6.52146H6.52422H6.52896L6.53747 16.6147L6.54622 16.6162H6.55222L6.56147 16.618L6.61722 16.6277L6.70271 16.1352C6.32047 16.0767 5.94322 15.9887 5.57447 15.8717ZM9.04371 16.2012C8.69821 16.2487 8.34997 16.2722 8.00146 16.2717C7.95896 16.2717 7.91647 16.2717 7.87397 16.2717L7.86572 16.7717H7.89546H8.50146H8.50946H8.51421H8.52246H8.53621H8.54421H8.54921H8.55721H8.56196H8.57021H8.58371H8.59196H8.59646H8.60471H8.61747H8.63021L8.65171 16.77H8.66471C8.81471 16.7577 8.96346 16.741 9.11096 16.72L9.04221 16.2247L9.04371 16.2012ZM11.2765 15.5217C10.9252 15.6925 10.561 15.8352 10.1872 15.949L10.3327 16.4275H10.3342L10.34 16.4257L10.3632 16.4185C10.512 16.3725 10.659 16.3225 10.804 16.2685L10.8125 16.2652L10.821 16.262L10.8262 16.26L10.8345 16.257L10.8395 16.255H10.842L10.8467 16.2532L10.8547 16.2502L10.8592 16.2485H10.8617L10.866 16.2467L10.8737 16.2437L10.878 16.242H10.8805H10.882L10.8857 16.2405H10.8872H10.8895H10.8912L10.8945 16.2392H10.896L10.8995 16.238H10.9012H10.9032H10.9052H10.9082H10.91H10.912H10.915H10.917H10.9187H10.921H10.9237H10.9255H10.9282H10.9302H10.9327H10.9345L10.9377 16.2367H10.9392H10.9417H10.9432L10.9465 16.2355H10.948H10.951H10.9527H10.9555H10.957L10.9605 16.234H10.9617H10.9647L10.9682 16.2325H10.9695L10.9732 16.231L10.9765 16.2297H10.9777L10.9812 16.2282H10.9842L11.0015 16.1905L11.0052 16.189L11.0087 16.1875L11.0125 16.186L11.0162 16.1845L11.0202 16.1827L11.0242 16.181L11.0282 16.1792L11.0322 16.1775L11.036 16.176L11.04 16.1742L11.044 16.1725L11.048 16.1707L11.0522 16.169L11.0607 16.1655L11.0692 16.162L11.0735 16.1602L11.0822 16.1565L11.091 16.1527C11.2227 16.0975 11.3525 16.0387 11.4805 15.9765L11.4847 15.9745L11.2765 15.5217ZM13.1917 14.1867C12.9095 14.4572 12.6067 14.7055 12.286 14.9292L12.572 15.3395C12.7647 15.2052 12.951 15.0627 13.1307 14.9125L13.138 14.9062L13.149 14.897L13.1562 14.891L13.1597 14.888L13.1667 14.882L13.1702 14.879L13.1735 14.8762L13.1767 14.8735L13.18 14.8707L13.183 14.8682L13.186 14.8657L13.1887 14.8635L13.1917 14.861L13.1947 14.8585L13.1972 14.8562L13.2002 14.8537L13.203 14.8512L13.2052 14.8492L13.208 14.8467L13.2102 14.8447L13.2127 14.8425L13.2155 14.84L13.2175 14.8382L13.2202 14.8357L13.2225 14.8337L13.2242 14.8322L13.226 14.8307L13.2275 14.8295L13.23 14.8272L13.2317 14.8257L13.2515 14.8082L13.2537 14.8062L13.2552 14.8047L13.257 14.8032L13.2587 14.8017L13.261 14.7997H13.2622L13.265 14.7975H13.2662L13.268 14.796L13.2707 14.7935L13.2767 14.7882L13.2802 14.7852L13.2865 14.7797L13.2902 14.7765L13.2925 14.7745L13.2965 14.771L13.303 14.7652L13.307 14.7617L13.3135 14.756L13.3245 14.7462C13.3942 14.684 13.4627 14.6205 13.5302 14.5557L13.1842 14.1947L13.1917 14.1867ZM14.6065 12.3295C14.4207 12.6735 14.2085 13.0022 13.9717 13.3132L14.3695 13.6162V13.615V13.6135L14.3707 13.6117L14.3727 13.6092L14.374 13.6075L14.3752 13.6057L14.377 13.6035L14.3785 13.6015V13.6L14.3805 13.5972V13.596L14.382 13.594V13.5925L14.384 13.5897V13.5882L14.3855 13.5862L14.3872 13.584L14.3887 13.582V13.5805L14.391 13.5777V13.5765L14.3925 13.5742V13.573L14.3945 13.5702V13.5687L14.3965 13.566V13.5645L14.398 13.5622V13.561L14.4002 13.558L14.402 13.5557V13.554L14.4037 13.5515L14.406 13.5485L14.4077 13.5462L14.41 13.5432V13.542L14.412 13.5392V13.538L14.4137 13.5357L14.416 13.5327L14.4177 13.5302V13.529L14.4197 13.5262L14.422 13.5232L14.424 13.5207L14.4262 13.5177L14.4282 13.515L14.4302 13.5122L14.4325 13.509L14.4342 13.5065L14.4365 13.5035L14.4387 13.5005L14.4407 13.4977L14.443 13.4945L14.4765 13.4717L14.4787 13.4687L14.481 13.4655L14.483 13.4627L14.4852 13.4595L14.4877 13.4562L14.49 13.4532L14.4925 13.45L14.495 13.4467L14.4975 13.4432L14.4997 13.44L14.5017 13.4372L14.504 13.434L14.5065 13.4305L14.5087 13.4272L14.5112 13.4237L14.5137 13.4205L14.5162 13.417L14.5187 13.4135L14.521 13.4102L14.5235 13.4067L14.526 13.4032L14.5282 13.4002L14.5307 13.3967L14.533 13.3937L14.5355 13.3902L14.538 13.3867L14.54 13.3837L14.5422 13.3805L14.5447 13.377L14.547 13.3737L14.5495 13.3702L14.552 13.3667L14.5545 13.3632L14.557 13.3597L14.5592 13.3565L14.5615 13.353L14.5665 13.3457L14.569 13.3422L14.5712 13.339L14.5737 13.3355L14.5762 13.332L14.5785 13.3287L14.5807 13.3252L14.5832 13.3215L14.5857 13.318L14.5882 13.3145L14.5905 13.3112L14.593 13.3077L14.5955 13.3042L14.5977 13.3007L14.6002 13.2972L14.6027 13.2937L14.6052 13.29L14.6077 13.2862L14.61 13.2827L14.6125 13.279L14.6175 13.2717L14.6197 13.2682L14.622 13.2647L14.6245 13.261L14.627 13.2575L14.6292 13.2542L14.6317 13.2507L14.6365 13.2435L14.6387 13.24L14.641 13.2367L14.6432 13.2332L14.6455 13.2297L14.6475 13.2265L14.6497 13.223L14.652 13.2197L14.6542 13.2162L14.6565 13.2127L14.6587 13.2095L14.661 13.206L14.6635 13.2022L14.6655 13.199L14.7015 13.1467L14.7035 13.1437L14.7057 13.1405L14.708 13.1372L14.71 13.1342L14.7122 13.1307L14.7145 13.1275L14.7165 13.1242L14.7187 13.121L14.7205 13.118L14.7227 13.1147L14.7247 13.1115L14.7265 13.1087L14.7287 13.1055L14.7307 13.1022L14.7327 13.099L14.735 13.0955L14.7367 13.0927L14.7387 13.0895L14.7515 13.0685L14.7532 13.0657L14.7552 13.0625L14.757 13.0597L14.759 13.0567L14.761 13.0535L14.7627 13.0507L14.7647 13.0475V13.0462L14.7665 13.0435V13.0422L14.768 13.0397V13.0382L14.77 13.0352V13.034L14.7715 13.0315V13.0302L14.7732 13.0272V13.0257L14.7752 13.0227L14.7767 13.0202V13.019L14.7787 13.016V13.0145L14.7805 13.0117L14.7822 13.009V13.0075L14.7842 13.0045V13.0032L14.7857 13.0007V12.9992L14.7875 12.9965V12.995L14.7895 12.9917L14.791 12.9895V12.988L14.7927 12.9852V12.9835L14.794 12.9815L14.7952 12.9792L14.7965 12.977V12.9755L14.7982 12.9725V12.971L14.7995 12.9687V12.967L14.8012 12.9642V12.9627L14.8027 12.9602V12.9582L14.804 12.9562V12.9547L14.8057 12.9517V12.9502L14.807 12.948L14.8082 12.946L14.8095 12.9437V12.9422L14.8112 12.9392V12.9377L14.8125 12.9355V12.934L14.8145 12.931V12.9295L14.816 12.927V12.925L14.8172 12.9227V12.9212L14.819 12.9185V12.9167V12.9147L14.8202 12.9125L14.8215 12.9102V12.9085L14.823 12.906V12.904V12.9022V12.9005L14.8247 12.8977V12.896V12.894L14.8262 12.8912V12.8895V12.8877L14.8277 12.8852L14.8292 12.883V12.8815L14.831 12.8785V12.877V12.875V12.8735L14.8327 12.8705V12.869L14.8347 12.8657V12.8642V12.8622V12.861L14.8367 12.8577V12.8562V12.8542V12.8525L14.8385 12.8495V12.848L14.8402 12.8447V12.8432V12.8412V12.8397L14.842 12.8365V12.8352L14.8442 12.8312V12.8292V12.8277L14.846 12.8245V12.823V12.821L14.8482 12.8172L14.8502 12.814V12.8127V12.8107V12.8092L14.8522 12.806V12.8047L14.8562 12.7977L14.8585 12.794V12.7917L14.8607 12.788L14.8632 12.784L14.8645 12.7817L14.8667 12.778L14.868 12.7757L14.8702 12.7717L14.8725 12.768L14.8737 12.7657L14.8762 12.7612L14.8805 12.754L14.8827 12.75L14.887 12.7427L14.8897 12.738L14.8912 12.7355L14.894 12.7305L14.8982 12.723L14.901 12.7182L14.9052 12.7107L14.9095 12.7032L14.912 12.6985L14.9162 12.691L14.919 12.6862L15.0015 12.6467L15.0057 12.639L15.0085 12.634L15.0127 12.6262L15.017 12.6185L15.0197 12.6135L15.024 12.606L15.0267 12.601L15.031 12.5935L15.0335 12.5887L15.0377 12.581L15.042 12.5732L15.0432 12.5707L14.6032 12.3332L14.6065 12.3295ZM15.3797 10.1295C15.3095 10.5137 15.2092 10.892 15.0797 11.2605L15.5515 11.4262C15.5757 11.357 15.5992 11.2872 15.6217 11.217L15.6245 11.2085L15.6265 11.1967L15.628 11.1922V11.1897L15.6292 11.1855V11.1842V11.182V11.179V11.1767V11.175V11.1717V11.17V11.1677V11.1655V11.1627V11.1605V11.1585V11.1552V11.1537V11.1512V11.1495V11.146V11.1442V11.1417V11.14V11.1367V11.135V11.132V11.13V11.1272V11.1257V11.1222V11.1207V11.118V11.1142V11.1127V11.1095V11.1055V11.1015V11.098V11.094V11.0905V11.0865L15.6305 11.0822V11.0782L15.6317 11.074V11.07L15.633 11.0657L15.6357 11.0567L15.6382 11.0477L15.6805 11.0217L15.6832 11.0127L15.6872 10.9987L15.69 10.9895L15.6927 10.9802C15.732 10.843 15.7677 10.7042 15.8 10.564L15.8032 10.5497L15.8052 10.5405L15.8072 10.5312V10.5267V10.5222V10.5177L15.8092 10.509V10.5047V10.5007V10.4965V10.4925V10.4882V10.484V10.48V10.476V10.4725V10.4685V10.4647V10.461V10.4595V10.4557V10.4527V10.4392V10.4355V10.434V10.431V10.4297V10.426V10.4242V10.4212V10.4192V10.4165V10.4145V10.4112V10.4092V10.407V10.4052V10.4017V10.3997V10.3975V10.3947V10.3925V10.3902V10.388V10.385V10.383V10.3807V10.3782V10.3752V10.3742V10.3695V10.367V10.3625V10.36V10.355L15.811 10.3465C15.8192 10.3055 15.827 10.264 15.8345 10.223L15.3427 10.1332L15.3797 10.1295ZM15.9345 7.72948L15.4387 7.79398C15.4807 8.11823 15.5015 8.44473 15.5015 8.77173C15.5015 8.83548 15.5007 8.89923 15.499 8.96273L15.999 8.97523C15.999 8.95598 15.999 8.93648 15.999 8.91698V8.86098V8.85823V8.85548V8.85273V8.77773V8.77173V8.53948V8.53373V8.51798V8.51423V8.50223V8.49673V8.48748V8.48448V8.47173V8.46848V8.45573C15.9895 8.20998 15.969 7.96723 15.9377 7.72773L15.9345 7.72948ZM15.2305 5.34148L14.779 5.55623C14.9465 5.90823 15.086 6.27298 15.1965 6.64673L15.676 6.50548C15.6482 6.41123 15.6187 6.31748 15.5875 6.22448L15.5845 6.21573L15.583 6.21123L15.5815 6.20698L15.58 6.20273L15.5785 6.19848L15.577 6.19423L15.5757 6.19023V6.18673L15.5745 6.18273V6.17923V6.17573V6.17423L15.5732 6.17048V6.16748V6.16623V6.16273V6.16123V6.15848V6.15648V6.15373V6.15223V6.14898V6.14723V6.14498V6.14323V6.13998V6.13798V6.13623V6.13323V6.13123V6.12923V6.12723V6.12423V6.12248V6.12023V6.11723V6.11498V6.11348L15.572 6.10973V6.10823V6.10573L15.5705 6.10123L15.5677 6.09348L15.566 6.08848L15.563 6.08023C15.4847 5.86223 15.3977 5.64898 15.3015 5.44023L15.2977 5.43223L15.2955 5.42723V5.42473L15.2935 5.42023L15.29 5.41273L15.2882 5.40898V5.40773V5.40548V5.40398L15.2515 5.38648V5.38498V5.38298L15.2502 5.37998V5.37798V5.37648L15.249 5.37348V5.37148V5.36973V5.36748V5.36523V5.36298V5.36123L15.2475 5.35798V5.35648V5.35398V5.35273L15.246 5.34923V5.34798L15.2445 5.34473L15.2432 5.34173L15.2305 5.34148ZM13.8242 3.28673L13.4605 3.62973C13.7287 3.91423 13.9742 4.21923 14.1952 4.54173L14.6077 4.25923C14.4902 4.08748 14.3662 3.92098 14.236 3.75923L14.2305 3.75223L14.2265 3.74673L14.221 3.73998L14.2177 3.73598L14.216 3.73373L14.2127 3.72973L14.2075 3.72348L14.205 3.72048L14.2035 3.71873V3.71723L14.2012 3.71448L14.1992 3.71198L14.1977 3.71023L14.1965 3.70873L14.195 3.70698L14.1932 3.70473L14.192 3.70323L14.1905 3.70148L14.1885 3.69898V3.69748L14.187 3.69548L14.1855 3.69373L14.1837 3.69148V3.69023L14.1815 3.68748V3.68623L14.1797 3.68423L14.1772 3.68123L14.175 3.67848L14.173 3.67623L14.1705 3.67323L14.1682 3.67073L14.166 3.66798L14.1635 3.66498L14.1612 3.66223L14.1587 3.65923L14.1562 3.65623L14.1537 3.65348L14.1512 3.65048L14.1485 3.64723L14.1265 3.62423L14.1237 3.62098L14.121 3.61773L14.118 3.61423L14.1122 3.60723L14.1095 3.60373L14.1015 3.59423L14.0985 3.59073L14.0925 3.58348L14.0862 3.57623C14.0017 3.47748 13.9147 3.38073 13.8255 3.28598L13.8242 3.28673ZM11.8562 1.76173L11.6145 2.19673C11.9567 2.38548 12.2837 2.60048 12.5927 2.83998L12.8992 2.44673C12.7112 2.30098 12.5167 2.16373 12.316 2.03473L12.3035 2.02673L12.2957 2.02173L12.2832 2.01398L12.2765 2.00773L12.2717 2.00473L12.2645 1.99998L12.2522 1.99223L12.245 1.98773L12.2405 1.98498L12.2332 1.98048L12.226 1.97598L12.222 1.97348L12.215 1.96898L12.2105 1.96623L12.208 1.96473L12.2032 1.96198L12.199 1.95948L12.1967 1.95823L12.193 1.95598L12.1765 1.94673L12.173 1.94448L12.1707 1.94323L12.1667 1.94073L12.1627 1.93823L12.1605 1.93698H12.1592L12.1515 1.93048H12.15H12.148H12.1465L12.1432 1.92848H12.142L12.1377 1.92173H12.1345L12.1307 1.91948L12.1265 1.91698L12.1242 1.91573L12.1207 1.91373H12.1195L12.1175 1.91248L12.1137 1.91023H12.1125L12.109 1.90823L12.1015 1.90048L12.096 1.89673L12.089 1.89248H12.0877L12.0842 1.89048H12.083H12.081H12.0795L12.0765 1.88523H12.075L12.072 1.88348H12.0702H12.0682H12.0667L12.0635 1.88173H12.0622L12.0587 1.87973H12.0575H12.0555H12.0542L12.051 1.87773H12.0495H12.0475H12.0457L12.0427 1.87598H12.0415L12.0382 1.87398H12.0367H12.0347H12.0332L12.03 1.87198H12.0287H12.0267H12.0252L12.022 1.86998H12.0207L12.0172 1.86798H12.016H12.0137L12.0077 1.84673H12.0065L12.003 1.84473L12.0007 1.84348L11.997 1.84123L11.99 1.83723L11.9865 1.83523L11.9842 1.83398L11.9805 1.83173L11.976 1.82923L11.9655 1.82173L11.9615 1.81948L11.9515 1.81398L11.9477 1.81173L11.9455 1.81048L11.9415 1.80823L11.9342 1.80423L11.9297 1.80173L11.9222 1.79748L11.9147 1.79323L11.9102 1.79073L11.9027 1.78648L11.89 1.77948L11.869 1.76798L11.8622 1.76423L11.8562 1.76173ZM9.51396 0.914479L9.41996 1.40548C9.80371 1.47898 10.181 1.58248 10.5485 1.71498L10.7182 1.24473C10.55 1.18398 10.379 1.12873 10.2055 1.07898L10.1962 1.07623L10.187 1.07373L10.182 1.07173L10.173 1.06923L10.164 1.06673H10.1597H10.1557H10.1515H10.1475H10.1432H10.1392H10.1355H10.1317H10.1285H10.1245H10.121H10.1172H10.116H10.1122H10.109H10.1052H10.104H10.101H10.0997H10.0962H10.0947H10.0915H10.0897H10.0867H10.0852H10.0817H10.0802H10.0777H10.0762H10.0727H10.071H10.0685H10.066H10.0635H10.0617H10.0587H10.0565H10.0542H10.0525H10.049H10.0472H10.045H10.0427H10.0397H10.038H10.0355H10.033H10.0307H10.0287H10.0257H10.0235H10.0215H10.0195H10.0162H10.0142H10.012L9.99646 1.02173H9.99422H9.99196H9.99021H9.98671H9.98521H9.98296H9.98146H9.97771H9.97646H9.97196H9.96946H9.96496H9.96246H9.95796H9.95146L9.94421 1.00923L9.93921 1.00798H9.93646H9.93146L9.91996 1.00323L9.91096 1.00098L9.90521 0.999729L9.89596 0.996729L9.88671 0.995229L9.87171 0.991479L9.86246 0.989229L9.85346 0.987229C9.78796 0.971729 9.72221 0.956979 9.65646 0.943229L9.63146 0.938229L9.62321 0.936229L9.61397 0.934229H9.60846L9.59871 0.931229L9.58946 0.929229H9.58371H9.58071H9.57496L9.56521 0.924479L9.55596 0.921729H9.55046H9.54646H9.54096L9.53146 0.917979L9.52646 0.916729H9.52372H9.51946H9.51396V0.914479ZM8.00146 0.771729V1.27173C8.08671 1.27173 8.17171 1.27323 8.25621 1.27598L8.27296 0.775979C8.21696 0.774479 8.16121 0.772979 8.10496 0.771729H8.00146V0.771729Z" fill="#DD0000"/>
<path d="M12.1017 8.2147H4V9.42935H12.1017V8.2147Z" fill="#DD0000"/>
</g>
<defs>
<clipPath id="clip0_929_2915">
<rect width="16" height="16" fill="white" transform="translate(0 0.771729)"/>
</clipPath>
</defs>
</svg>
