<svg width="27" height="27" viewBox="0 0 27 27" fill="none" xmlns="http://www.w3.org/2000/svg">
<g clip-path="url(#clip0_929_1306)">
<path d="M4.54828 0.771729H0.833984V4.48602H4.54828V0.771729Z" fill="#003153"/>
<path d="M26.8344 0.771729H23.1201V4.48602H26.8344V0.771729Z" fill="#003153"/>
<path d="M4.54828 23.0554H0.833984V26.7697H4.54828V23.0554Z" fill="#003153"/>
<path d="M26.8344 23.0554H23.1201V26.7697H26.8344V23.0554Z" fill="#003153"/>
<path d="M21.2624 1.70111H19.4053V3.55823H21.2624V1.70111Z" fill="#003153"/>
<path d="M18.0124 1.70111H16.1553V3.55823H18.0124V1.70111Z" fill="#003153"/>
<path d="M14.7624 1.70111H12.9053V3.55823H14.7624V1.70111Z" fill="#003153"/>
<path d="M11.5124 1.70111H9.65527V3.55823H11.5124V1.70111Z" fill="#003153"/>
<path d="M8.26239 1.70111H6.40527V3.55823H8.26239V1.70111Z" fill="#003153"/>
<path d="M21.2624 23.988H19.4053V25.8452H21.2624V23.988Z" fill="#003153"/>
<path d="M18.0124 23.988H16.1553V25.8452H18.0124V23.988Z" fill="#003153"/>
<path d="M14.7624 23.988H12.9053V25.8452H14.7624V23.988Z" fill="#003153"/>
<path d="M11.5124 23.988H9.65527V25.8452H11.5124V23.988Z" fill="#003153"/>
<path d="M8.26239 23.988H6.40527V25.8452H8.26239V23.988Z" fill="#003153"/>
<path d="M25.905 19.3423H24.0479V21.1995H25.905V19.3423Z" fill="#003153"/>
<path d="M25.905 16.0923H24.0479V17.9495H25.905V16.0923Z" fill="#003153"/>
<path d="M25.905 12.8423H24.0479V14.6995H25.905V12.8423Z" fill="#003153"/>
<path d="M25.905 9.59235H24.0479V11.4495H25.905V9.59235Z" fill="#003153"/>
<path d="M25.905 6.34235H24.0479V8.19947H25.905V6.34235Z" fill="#003153"/>
<path d="M3.61982 19.3423H1.7627V21.1995H3.61982V19.3423Z" fill="#003153"/>
<path d="M3.61982 16.0923H1.7627V17.9495H3.61982V16.0923Z" fill="#003153"/>
<path d="M3.61982 12.8423H1.7627V14.6995H3.61982V12.8423Z" fill="#003153"/>
<path d="M3.61982 9.59235H1.7627V11.4495H3.61982V9.59235Z" fill="#003153"/>
<path d="M3.61982 6.34235H1.7627V8.19947H3.61982V6.34235Z" fill="#003153"/>
<path d="M13.834 6.12842L6.2959 21.2048H8.37219L10.6937 16.5619H16.9745L19.296 21.2048H21.3722L13.834 6.12842ZM11.6221 14.7048L13.834 10.2811L16.0459 14.7048H11.6221Z" fill="#003153"/>
</g>
<defs>
<clipPath id="clip0_929_1306">
<rect width="26" height="26" fill="white" transform="translate(0.833984 0.771729)"/>
</clipPath>
</defs>
</svg>
