<svg width="25" height="25" viewBox="0 0 25 25" fill="none" xmlns="http://www.w3.org/2000/svg">
<g clip-path="url(#clip0_929_1440)">
<path d="M12.5029 0H11.774H11.7611H11.6748H11.6615H11.6479H11.6342H11.6256H11.6193H11.6107H11.6045H11.5959H11.5904H11.5811H11.5666H11.5525H11.5385H11.524H11.5096L11.4705 0.003125H11.4557H11.4412H11.4264C11.1365 0.0292969 10.8502 0.0636719 10.567 0.107031L10.6877 0.878906C11.2893 0.8 11.8963 0.767187 12.5029 0.78125V0ZM8.65918 0.601953C8.03926 0.801562 7.43613 1.05 6.85527 1.34414L7.20684 2.04102C7.75137 1.76484 8.3166 1.53203 8.89746 1.34414L8.65762 0.601953H8.65918ZM5.18965 2.35977C4.66152 2.7418 4.16426 3.16445 3.70176 3.62383L4.25176 4.17852C4.68574 3.74844 5.15215 3.35273 5.64707 2.99492L5.18965 2.36172C5.18965 2.36172 5.18965 2.35977 5.18965 2.35977ZM2.42676 5.10117C2.32246 5.24414 2.22051 5.38945 2.12012 5.53672L2.10762 5.55547L2.09941 5.56797L2.09512 5.57422L2.08691 5.58633L2.08301 5.59219L2.0791 5.59805L2.0752 5.60391L2.06738 5.61563L2.06348 5.62148L2.05957 5.62734L2.05566 5.6332L2.05176 5.63906L2.04824 5.64453L2.04473 5.65L2.04121 5.65547L2.0373 5.66133L2.03379 5.6668L2.03027 5.67188L2.02676 5.67734L2.02324 5.68281L2.01973 5.68789L2.01621 5.69336L2.01309 5.69844L2.00957 5.70391L2.00605 5.70937L2.00293 5.71406L1.99941 5.71953L1.9959 5.725L1.99238 5.73008L1.98887 5.73555L1.98574 5.74062L1.98223 5.74609L1.97871 5.75156L1.97598 5.75625L1.97285 5.76133L1.97012 5.76562L1.96738 5.77031V5.77227L1.96426 5.77734L1.96152 5.78164L1.9584 5.78672L1.95527 5.79141L1.95254 5.7957L1.94941 5.80078L1.94668 5.80469L1.94355 5.80937V5.81133L1.94043 5.81641L1.93809 5.82031L1.93496 5.82539L1.93223 5.82969V5.83203L1.92988 5.83594L1.92676 5.84102V5.84297L1.92441 5.84648V5.84883L1.92168 5.85313V5.85547L1.87793 5.91406V5.91602L1.87559 5.91953V5.92148L1.87246 5.92656V5.92891L1.87012 5.93242V5.93555L1.86777 5.93945V5.9418L1.86465 5.94648V5.94844L1.8623 5.95234L1.85918 5.95742V5.95977L1.85645 5.96406V5.96641L1.8541 5.97031V5.97227L1.85098 5.97695V5.97891L1.84863 5.98281V5.98516L1.8459 5.98945V5.9918L1.84277 5.99648V5.99883L1.84043 6.00234V6.0043L1.8373 6.00898V6.01133L1.83457 6.01602L1.83184 6.02031V6.02227L1.82871 6.02734V6.0293L1.82637 6.0332V6.03594L1.82363 6.04023V6.04258L1.82051 6.04766V6.04961L1.81855 6.05312V6.05547L1.81582 6.06016V6.0625L1.81348 6.06641V6.06914L1.81113 6.07305V6.07539L1.80801 6.08047V6.08242L1.80566 6.08594V6.08828L1.80293 6.09297V6.09531L1.80059 6.09922V6.10234L1.79863 6.10586V6.1082L1.7959 6.11289V6.11562V6.11875V6.12187L1.79355 6.12578V6.12812L1.79082 6.1332V6.13516L1.78848 6.13867V6.14062L1.78535 6.1457V6.14766L1.78262 6.15195V6.15469L1.78027 6.15859V6.16094L1.77754 6.16563V6.16797L1.77559 6.17148V6.17422L1.77285 6.17852V6.18086L1.77012 6.18594V6.18828L1.76816 6.1918V6.19414L1.76543 6.19883V6.20117L1.76309 6.20508V6.20781L1.76074 6.21172V6.21406L1.75801 6.21875V6.22109L1.75605 6.22461V6.22695L1.75332 6.23164V6.23398L1.75059 6.23828V6.24062L1.74824 6.24453V6.24648L1.74551 6.25156V6.25352L1.74316 6.25781V6.26016L1.74043 6.26445V6.2668L1.7377 6.27187V6.27383L1.73535 6.27773L1.73262 6.28281V6.28477L1.72988 6.28945L1.72754 6.29375V6.29609L1.7248 6.30117V6.30312L1.72246 6.30742V6.30938L1.71973 6.31406V6.31641L1.71699 6.32148V6.32344L1.71504 6.32734V6.3293L1.7123 6.33437V6.33633L1.70957 6.34102V6.34297L1.70723 6.34727V6.34961L1.70449 6.35469L1.70215 6.35859L1.69941 6.36367V6.36562L1.69668 6.3707V6.37266L1.69434 6.37656L1.6916 6.38164L1.68887 6.38633L1.68613 6.39141L1.68301 6.39687L1.68066 6.40156L1.67754 6.40703L1.6748 6.41211L1.67246 6.4168L1.56543 6.44531L1.5627 6.45L1.55957 6.45547L1.55645 6.46094L1.55371 6.46602L1.55059 6.47188L1.54746 6.47734L1.54473 6.48242L1.5416 6.48789L1.53848 6.49336L1.53535 6.49922L1.53223 6.50508L1.52949 6.51055L1.52598 6.5168L1.51934 6.52891L1.51621 6.53477L1.51309 6.54062L1.50996 6.54688L1.50332 6.55937L1.5002 6.56563L1.49707 6.57187L1.49355 6.57812L1.49004 6.58438L1.48652 6.59062L1.4834 6.59688L1.47676 6.60938L1.47363 6.61563L1.47051 6.62187L1.46699 6.62813L1.46348 6.63437L1.45996 6.64062L1.45645 6.64727L1.44941 6.66016L1.4459 6.6668L1.44238 6.67344L1.43887 6.68008L1.43184 6.69336L1.42832 6.7L1.42129 6.71328L1.41426 6.72656L2.10801 7.08594C2.38887 6.54375 2.71191 6.02422 3.07363 5.53242L2.42676 5.10117ZM0.638086 8.55469C0.574414 8.7457 0.51543 8.93906 0.461133 9.13438L0.457227 9.14883L0.45332 9.16328L0.447461 9.18516L0.443555 9.19961L0.439648 9.21367V9.2207V9.22773V9.23477L0.436133 9.24844V9.25508V9.26133V9.26797V9.27422V9.28086V9.28711V9.29336V9.29961V9.30508V9.31133V9.3168V9.32305V9.3293V9.33477V9.34062V9.34531V9.34727V9.35312V9.35508V9.36016V9.36602V9.36836V9.37344V9.37617V9.38047V9.3832V9.38867V9.39102V9.39531V9.39766V9.40312V9.40586V9.41016V9.41328V9.41758V9.42031V9.425V9.42812V9.43164V9.43477V9.43984V9.44297V9.44648V9.45039V9.4543V9.45781V9.46055V9.46602V9.46914V9.47227V9.47578V9.48086V9.48398V9.48711V9.49219V9.4957V9.49844V9.50273V9.50664V9.51016V9.51328V9.51836V9.52148V9.525V9.52773V9.5332V9.53594V9.53945V9.54453V9.54805V9.55039V9.55625V9.55898V9.5625V9.56484V9.5707V9.57305V9.57656V9.5793V9.58516V9.5875V9.59375V9.5957V9.59961V9.60195V9.6082V9.61016V9.61406V9.61641V9.62266V9.64844V9.65234V9.66055V9.66797V9.67188V9.67422V9.68047V9.6875V9.69141V9.69844L0.31543 9.71406V9.72227V9.72656V9.73398V9.73828V9.7457L0.30293 9.76562V9.76758V9.77461V9.77852V9.78516V9.78711V9.79102V9.79766V9.80469L0.300195 9.81719V9.81914V9.82539V9.82773V9.83164V9.83398V9.84062V9.84453V9.85195V9.8543V9.86055V9.86289V9.8668V9.86914V9.87578V9.88281V9.88672V9.88906V9.89492V9.89727V9.90078V9.90469V9.90938V9.91211V9.91719V9.92031V9.92383V9.92656V9.93203V9.93477V9.93828V9.94141V9.94648V9.94961V9.95312V9.9582V9.96172V9.96484V9.96953V9.97305V9.97617V9.98008V9.98398V9.98828V9.99102V9.99609V9.99922V10.0031V10.0059V10.0113V10.0141V10.0184V10.0207V10.0266V10.0293V10.034V10.0367V10.0414V10.0437V10.0496V10.052V10.0566V10.0586V10.0645V10.0664V10.0711V10.077V10.0781V10.084V10.0891V10.0953V10.1012V10.1078V10.1141V10.1211V10.1281V10.1348V10.1418V10.1492V10.1566L0.297461 10.1711C0.281055 10.259 0.26543 10.3477 0.250586 10.4363L1.02129 10.5637C1.1209 9.96133 1.26738 9.36797 1.45957 8.78867L0.717383 8.54219L0.638086 8.55469ZM0.00292969 12.3938V12.4066V12.4637V12.5V12.5801V13.2539V13.2668V13.3129V13.3203V13.3332V13.3852V13.398V13.4109V13.4328V13.4406V13.4477V13.4559V13.4621V13.4746V13.4813V13.4895V13.5266V13.5391V13.5461V13.5535V13.6406V13.6473V13.816V13.8219V13.8305V13.8363V13.8449V13.8504V13.8559V13.8672V13.873V13.8816V13.8875V13.8957V13.902V13.9074V13.9141V13.9203V13.9336V13.9398V13.9465V13.9527V13.9664V13.9801V13.9938C0.0166016 14.1074 0.0314453 14.2203 0.0482422 14.3328L0.821289 14.2188C0.767383 13.6477 0.754883 13.073 0.78418 12.5V12.4004L0.00292969 12.3938ZM1.31777 16.009L0.572461 16.2434C0.60332 16.341 0.634961 16.4383 0.667773 16.5352L0.687695 16.593C0.704492 16.641 0.721289 16.6891 0.738477 16.7371C0.900195 17.1863 1.0877 17.6258 1.3002 18.0531L1.9998 17.7055C1.72832 17.159 1.5002 16.5918 1.31777 16.009ZM2.93926 19.275L2.30293 19.7266C2.67832 20.2555 3.09434 20.7547 3.54707 21.2195L3.55215 21.225L4.11152 20.6781C3.68496 20.2402 3.29316 19.7703 2.93965 19.2719L2.93926 19.275ZM5.48652 21.8875L5.01777 22.5125C5.41113 22.807 5.82168 23.0781 6.24707 23.3246L6.26738 23.3363L6.2791 23.343L6.28613 23.3469L6.29746 23.3535L6.30449 23.3574L6.3084 23.3594L6.31504 23.3629L6.3209 23.3664H6.32441L6.32988 23.3695H6.3334H6.33613L6.34082 23.3723H6.34316L6.34824 23.375H6.35059H6.35371H6.35605L6.36074 23.3777H6.36348H6.36621L6.3709 23.3805H6.37363H6.37676L6.38066 23.3824H6.38379H6.38652L6.39121 23.3852H6.39355H6.39707H6.39941L6.40449 23.3879H6.40684L6.41074 23.3902H6.41387L6.41738 23.3922H6.41973L6.4248 23.3949H6.42715L6.43106 23.3969H6.43379L6.43809 23.3992H6.44082L6.44551 23.402H6.44746L6.45137 23.4043L6.45645 23.407L6.46152 23.4098L6.46621 23.4125L6.47168 23.4156L6.47637 23.4184L6.48184 23.4215L6.4873 23.4246L6.49238 23.4273L6.49824 23.4305L6.5041 23.4336L6.51035 23.4371L6.51699 23.4406L6.52324 23.4441L6.52949 23.4477L6.53574 23.4512L6.54199 23.4547L6.54824 23.4582L6.56113 23.4652L6.56738 23.4688L6.57402 23.4723L6.58066 23.4758L6.59356 23.4828L6.6002 23.4863L6.61348 23.4934L6.6334 23.5039L7.03418 22.8664C6.49434 22.5809 5.97793 22.2535 5.48887 21.8875H5.48652ZM8.71074 23.5938L8.45801 24.3332C8.94551 24.4996 9.44316 24.6359 9.94746 24.7406L9.96231 24.7438L9.97715 24.7469H9.98457L9.99863 24.7496L10.0123 24.7523H10.0189H10.0252H10.0318H10.0381H10.0447H10.0514H10.0568H10.0631H10.065H10.0701H10.076H10.0783H10.0834H10.0857H10.0904H10.0932H10.0986H10.101H10.1049H10.1201H10.1256H10.1283H10.1322H10.1357H10.1404H10.1432H10.1471H10.1518H10.1553H10.1584H10.1623H10.1666H10.1693H10.1732H10.1775H10.1814H10.1838H10.1904H10.1947H10.2021L10.2154 24.7547L10.2291 24.757H10.2385L10.2529 24.7598L10.34 24.775L10.4736 24.0055C9.87637 23.9141 9.28691 23.7766 8.71074 23.5938ZM14.1314 24.1086C13.5916 24.1828 13.0475 24.2195 12.5029 24.2188C12.4365 24.2188 12.3701 24.2188 12.3037 24.2188L12.2908 25H12.3373H13.2842H13.2967H13.3041H13.317H13.3385H13.351H13.3588H13.3713H13.3787H13.3916H13.4127H13.4256H13.4326H13.4455H13.4654H13.4854L13.5189 24.9973H13.5393C13.7736 24.9781 14.0061 24.952 14.2365 24.9191L14.1291 24.1453L14.1314 24.1086ZM17.6201 23.0469C17.0713 23.3137 16.5021 23.5367 15.9182 23.7145L16.1455 24.4621H16.1479L16.1568 24.4594L16.1932 24.448C16.4256 24.3762 16.6553 24.298 16.8818 24.2137L16.8951 24.2086L16.9084 24.2035L16.9166 24.2004L16.9295 24.1957L16.9373 24.1926H16.9412L16.9486 24.1898L16.9611 24.1852L16.9682 24.1824H16.9721L16.9787 24.1797L16.9908 24.175L16.9975 24.1723H17.0014H17.0037L17.0096 24.1699H17.0119H17.0154H17.0182L17.0232 24.168H17.0256L17.0311 24.166H17.0338H17.0369H17.04H17.0447H17.0475H17.0506H17.0553H17.0584H17.0611H17.0646H17.0689H17.0717H17.076H17.0791H17.083H17.0857L17.0908 24.1641H17.0932H17.0971H17.0994L17.1045 24.1621H17.1068H17.1115H17.1143H17.1186H17.1209L17.1264 24.1598H17.1283H17.133L17.1385 24.1574H17.1404L17.1463 24.1551L17.1514 24.1531H17.1533L17.1588 24.1508H17.1635L17.1904 24.0918L17.1963 24.0895L17.2018 24.0871L17.2076 24.0848L17.2135 24.0824L17.2197 24.0797L17.226 24.077L17.2322 24.0742L17.2385 24.0715L17.2443 24.0691L17.2506 24.0664L17.2568 24.0637L17.2631 24.0609L17.2697 24.0582L17.283 24.0527L17.2963 24.0473L17.3029 24.0445L17.3166 24.0387L17.3303 24.0328C17.5361 23.9465 17.7389 23.8547 17.9389 23.7574L17.9455 23.7543L17.6201 23.0469ZM20.6127 20.9609C20.1717 21.3836 19.6986 21.7715 19.1975 22.1211L19.6443 22.7621C19.9455 22.5523 20.2365 22.3297 20.5174 22.0949L20.5287 22.0852L20.5459 22.0707L20.5572 22.0613L20.5627 22.0566L20.5736 22.0473L20.5791 22.0426L20.5842 22.0383L20.5893 22.034L20.5943 22.0297L20.599 22.0258L20.6037 22.0219L20.608 22.0184L20.6127 22.0145L20.6174 22.0105L20.6213 22.007L20.626 22.0031L20.6303 21.9992L20.6338 21.9961L20.6381 21.9922L20.6416 21.9891L20.6455 21.9855L20.6498 21.9816L20.6529 21.9789L20.6572 21.975L20.6607 21.9719L20.6635 21.9695L20.6662 21.9672L20.6686 21.9652L20.6725 21.9617L20.6752 21.9594L20.7061 21.932L20.7096 21.9289L20.7119 21.9266L20.7146 21.9242L20.7174 21.9219L20.7209 21.9188H20.7229L20.7271 21.9152H20.7291L20.7318 21.9129L20.7361 21.909L20.7455 21.9008L20.751 21.8961L20.7607 21.8875L20.7666 21.8824L20.7701 21.8793L20.7764 21.8738L20.7865 21.8648L20.7928 21.8594L20.8029 21.8504L20.8201 21.8352C20.9291 21.7379 21.0361 21.6387 21.1416 21.5375L20.601 20.9734L20.6127 20.9609ZM22.8232 18.059C22.533 18.5965 22.2014 19.1102 21.8314 19.5961L22.4529 20.0695V20.0676V20.0652L22.4549 20.0625L22.458 20.0586L22.46 20.0559L22.4619 20.0531L22.4646 20.0496L22.467 20.0465V20.0441L22.4701 20.0398V20.0379L22.4725 20.0348V20.0324L22.4756 20.0281V20.0258L22.4779 20.0227L22.4807 20.0191L22.483 20.016V20.0137L22.4865 20.0094V20.0074L22.4889 20.0039V20.002L22.492 19.9977V19.9953L22.4951 19.991V19.9887L22.4975 19.9852V19.9832L22.501 19.9785L22.5037 19.975V19.9723L22.5064 19.9684L22.51 19.9637L22.5127 19.9602L22.5162 19.9555V19.9535L22.5193 19.9492V19.9473L22.5221 19.9438L22.5256 19.9391L22.5283 19.9352V19.9332L22.5314 19.9289L22.535 19.9242L22.5381 19.9203L22.5416 19.9156L22.5447 19.9113L22.5479 19.907L22.5514 19.902L22.5541 19.898L22.5576 19.8934L22.5611 19.8887L22.5643 19.8844L22.5678 19.8793L22.6201 19.8438L22.6236 19.8391L22.6271 19.834L22.6303 19.8297L22.6338 19.8246L22.6377 19.8195L22.6412 19.8148L22.6451 19.8098L22.649 19.8047L22.6529 19.7992L22.6564 19.7941L22.6596 19.7898L22.6631 19.7848L22.667 19.7793L22.6705 19.7742L22.6744 19.7688L22.6783 19.7637L22.6822 19.7582L22.6861 19.7527L22.6896 19.7477L22.6936 19.7422L22.6975 19.7367L22.701 19.732L22.7049 19.7266L22.7084 19.7219L22.7123 19.7164L22.7162 19.7109L22.7193 19.7063L22.7229 19.7012L22.7268 19.6957L22.7303 19.6906L22.7342 19.6852L22.7381 19.6797L22.742 19.6742L22.7459 19.6688L22.7494 19.6637L22.7529 19.6582L22.7607 19.6469L22.7646 19.6414L22.7682 19.6363L22.7721 19.6309L22.776 19.6254L22.7795 19.6203L22.783 19.6148L22.7869 19.609L22.7908 19.6035L22.7947 19.598L22.7982 19.593L22.8021 19.5875L22.8061 19.582L22.8096 19.5766L22.8135 19.5711L22.8174 19.5656L22.8213 19.5598L22.8252 19.5539L22.8287 19.5484L22.8326 19.5426L22.8405 19.5312L22.844 19.5258L22.8475 19.5203L22.8514 19.5145L22.8553 19.509L22.8588 19.5039L22.8627 19.4984L22.8702 19.4871L22.8737 19.4816L22.8772 19.4766L22.8807 19.4711L22.8842 19.4656L22.8874 19.4605L22.8909 19.4551L22.8944 19.45L22.8979 19.4445L22.9014 19.4391L22.9049 19.434L22.9084 19.4285L22.9124 19.4227L22.9155 19.4176L22.9717 19.3359L22.9748 19.3312L22.9783 19.3262L22.9818 19.3211L22.985 19.3164L22.9885 19.3109L22.992 19.3059L22.9951 19.3008L22.9986 19.2957L23.0014 19.291L23.0049 19.2859L23.008 19.2809L23.0107 19.2766L23.0143 19.2715L23.0174 19.2664L23.0205 19.2613L23.024 19.2559L23.0268 19.2516L23.0299 19.2465L23.0498 19.2137L23.0525 19.2094L23.0557 19.2043L23.0584 19.2L23.0615 19.1953L23.0646 19.1902L23.0674 19.1859L23.0705 19.1809V19.1789L23.0732 19.1746V19.1727L23.0756 19.1687V19.1664L23.0787 19.1617V19.1598L23.0811 19.1559V19.1539L23.0838 19.1492V19.1469L23.0869 19.1422L23.0893 19.1383V19.1363L23.0924 19.1316V19.1293L23.0951 19.125L23.0979 19.1207V19.1184L23.101 19.1137V19.1117L23.1033 19.1078V19.1055L23.1061 19.1012V19.0988L23.1092 19.0938L23.1115 19.0902V19.0879L23.1143 19.0836V19.0809L23.1162 19.0777L23.1182 19.0742L23.1201 19.0707V19.0684L23.1229 19.0637V19.0613L23.1248 19.0578V19.0551L23.1275 19.0508V19.0484L23.1299 19.0445V19.0414L23.1318 19.0383V19.0359L23.1346 19.0312V19.0289L23.1365 19.0254L23.1385 19.0223L23.1404 19.0187V19.0164L23.1432 19.0117V19.0094L23.1451 19.0059V19.0035L23.1482 18.9988V18.9965L23.1506 18.9926V18.9895L23.1525 18.9859V18.9836L23.1553 18.9793V18.9766V18.9734L23.1572 18.9699L23.1592 18.9664V18.9637L23.1615 18.9598V18.9566V18.9539V18.9512L23.1643 18.9469V18.9441V18.941L23.1666 18.9367V18.934V18.9312L23.1689 18.9273L23.1713 18.9238V18.9215L23.174 18.9168V18.9145V18.9113V18.909L23.1768 18.9043V18.902L23.1799 18.8969V18.8945V18.8914V18.8895L23.183 18.8844V18.882V18.8789V18.8762L23.1857 18.8715V18.8691L23.1885 18.8641V18.8617V18.8586V18.8562L23.1912 18.8512V18.8492L23.1947 18.843V18.8398V18.8375L23.1975 18.8324V18.8301V18.827L23.201 18.8211L23.2041 18.816V18.8141V18.8109V18.8086L23.2072 18.8035V18.8016L23.2135 18.7906L23.217 18.7848V18.7812L23.2205 18.7754L23.2244 18.7691L23.2264 18.7656L23.2299 18.7598L23.2318 18.7563L23.2354 18.75L23.2389 18.7441L23.2408 18.7406L23.2447 18.7336L23.2514 18.7223L23.2549 18.716L23.2615 18.7047L23.2658 18.6973L23.2682 18.6934L23.2725 18.6855L23.2791 18.6738L23.2834 18.6664L23.29 18.6547L23.2967 18.643L23.3006 18.6355L23.3072 18.6238L23.3115 18.6164L23.4404 18.5547L23.4471 18.5426L23.4514 18.5348L23.458 18.5227L23.4646 18.5105L23.4689 18.5027L23.4756 18.491L23.4799 18.4832L23.4865 18.4715L23.4904 18.4641L23.4971 18.452L23.5037 18.4398L23.5057 18.4359L22.8182 18.0648L22.8232 18.059ZM24.0314 14.6215C23.9217 15.2219 23.765 15.8129 23.5627 16.3887L24.2998 16.6477C24.3377 16.5395 24.3744 16.4305 24.4096 16.3207L24.4139 16.3074L24.417 16.2891L24.4193 16.282V16.2781L24.4213 16.2715V16.2695V16.266V16.2613V16.2578V16.2551V16.25V16.2473V16.2437V16.2402V16.2359V16.2324V16.2293V16.2242V16.2219V16.218V16.2152V16.2098V16.207V16.2031V16.2004V16.1953V16.1926V16.1879V16.1848V16.1805V16.1781V16.1727V16.1703V16.166V16.1602V16.1578V16.1527V16.1465V16.1402V16.1348V16.1285V16.123V16.1168L24.4232 16.1102V16.1039L24.4252 16.0973V16.091L24.4271 16.0844L24.4314 16.0703L24.4354 16.0562L24.5014 16.0156L24.5057 16.0016L24.5119 15.9797L24.5162 15.9652L24.5205 15.9508C24.5818 15.7363 24.6377 15.5195 24.6881 15.3004L24.6932 15.2781L24.6963 15.2637L24.6994 15.2492V15.2422V15.2352V15.2281L24.7025 15.2145V15.2078V15.2016V15.1949V15.1887V15.182V15.1754V15.1691V15.1629V15.1574V15.1512V15.1453V15.1395V15.1371V15.1313V15.1266V15.1055V15.0996V15.0973V15.0926V15.0906V15.0848V15.082V15.0773V15.0742V15.0699V15.0668V15.0617V15.0586V15.0551V15.0523V15.0469V15.0438V15.0402V15.0359V15.0324V15.0289V15.0254V15.0207V15.0176V15.0141V15.0102V15.0055V15.0039V14.9965V14.9926V14.9855V14.9816V14.9738L24.7053 14.9605C24.7182 14.8965 24.7303 14.8316 24.742 14.7676L23.9736 14.6273L24.0314 14.6215ZM24.8982 10.8715L24.1236 10.9723C24.1893 11.4789 24.2217 11.9891 24.2217 12.5C24.2217 12.5996 24.2205 12.6992 24.2178 12.7984L24.999 12.818C24.999 12.7879 24.999 12.7574 24.999 12.727V12.6395V12.6352V12.6309V12.6266V12.5094V12.5V12.1371V12.1281V12.1035V12.0977V12.0789V12.0703V12.0559V12.0512V12.0312V12.0262V12.0063C24.9842 11.6223 24.9521 11.243 24.9033 10.8687L24.8982 10.8715ZM23.7982 7.14023L23.0928 7.47578C23.3545 8.02578 23.5725 8.5957 23.7451 9.17969L24.4943 8.95898C24.451 8.81172 24.4049 8.66523 24.3561 8.51992L24.3514 8.50625L24.349 8.49922L24.3467 8.49258L24.3443 8.48594L24.342 8.4793L24.3396 8.47266L24.3377 8.46641V8.46094L24.3357 8.45469V8.44922V8.44375V8.44141L24.3338 8.43555V8.43086V8.42891V8.42344V8.42109V8.4168V8.41367V8.40938V8.40703V8.40195V8.39922V8.3957V8.39297V8.38789V8.38477V8.38203V8.37734V8.37422V8.37109V8.36797V8.36328V8.36055V8.35703V8.35234V8.34883V8.34648L24.3318 8.34062V8.33828V8.33438L24.3295 8.32734L24.3252 8.31523L24.3225 8.30742L24.3178 8.29453C24.1955 7.95391 24.0596 7.6207 23.9092 7.29453L23.9033 7.28203L23.8998 7.27422V7.27031L23.8967 7.26328L23.8912 7.25156L23.8885 7.2457V7.24375V7.24023V7.23789L23.8311 7.21055V7.2082V7.20508L23.8291 7.20039V7.19727V7.19492L23.8271 7.19023V7.18711V7.18438V7.18086V7.17734V7.17383V7.17109L23.8248 7.16602V7.16367V7.15977V7.15781L23.8225 7.15234V7.15039L23.8201 7.14531L23.8182 7.14063L23.7982 7.14023ZM21.601 3.92969L21.0326 4.46563C21.4518 4.91016 21.8354 5.38672 22.1807 5.89062L22.8252 5.44922C22.6416 5.18086 22.4479 4.9207 22.2443 4.66797L22.2357 4.65703L22.2295 4.64844L22.2209 4.63789L22.2158 4.63164L22.2131 4.62812L22.208 4.62187L22.1998 4.61211L22.1959 4.60742L22.1936 4.60469V4.60234L22.19 4.59805L22.1869 4.59414L22.1846 4.59141L22.1826 4.58906L22.1803 4.58633L22.1775 4.58281L22.1756 4.58047L22.1732 4.57773L22.1701 4.57383V4.57148L22.1678 4.56836L22.1654 4.56562L22.1627 4.56211V4.56016L22.1592 4.55586V4.55391L22.1564 4.55078L22.1525 4.54609L22.149 4.5418L22.1459 4.53828L22.142 4.53359L22.1385 4.52969L22.135 4.52539L22.1311 4.5207L22.1275 4.51641L22.1236 4.51172L22.1197 4.50703L22.1158 4.50273L22.1119 4.49805L22.1076 4.49297L22.0732 4.45703L22.0689 4.45195L22.0646 4.44688L22.06 4.44141L22.051 4.43047L22.0467 4.425L22.0342 4.41016L22.0295 4.40469L22.0201 4.39336L22.0104 4.38203C21.8783 4.22773 21.7424 4.07656 21.6029 3.92852L21.601 3.92969ZM18.526 1.54688L18.1482 2.22656C18.683 2.52148 19.1939 2.85742 19.6768 3.23164L20.1557 2.61719C19.8619 2.38945 19.558 2.175 19.2443 1.97344L19.2248 1.96094L19.2127 1.95312L19.1932 1.94102L19.1826 1.93125L19.1752 1.92656L19.1639 1.91914L19.1447 1.90703L19.1334 1.9L19.1264 1.8957L19.115 1.88867L19.1037 1.88164L19.0975 1.87773L19.0865 1.8707L19.0795 1.86641L19.0756 1.86406L19.0682 1.85977L19.0615 1.85586L19.058 1.85391L19.0521 1.85039L19.0264 1.83594L19.0209 1.83242L19.0174 1.83047L19.0111 1.82656L19.0049 1.82266L19.0014 1.8207H18.9994L18.9873 1.81055H18.985H18.9818H18.9795L18.9744 1.80742H18.9725L18.9658 1.79688H18.9607L18.9549 1.79336L18.9482 1.78945L18.9447 1.7875L18.9393 1.78437H18.9373L18.9342 1.78242L18.9283 1.77891H18.9264L18.9209 1.77578L18.9092 1.76367L18.9006 1.75781L18.8896 1.75117H18.8877L18.8822 1.74805H18.8803H18.8771H18.8748L18.8701 1.73984H18.8678L18.8631 1.73711H18.8604H18.8572H18.8549L18.8498 1.73438H18.8479L18.8424 1.73125H18.8404H18.8373H18.8354L18.8303 1.72812H18.8279H18.8248H18.8221L18.8174 1.72539H18.8154L18.8104 1.72227H18.808H18.8049H18.8025L18.7975 1.71914H18.7955H18.7924H18.79L18.785 1.71602H18.783L18.7775 1.71289H18.7756H18.7721L18.7627 1.67969H18.7607L18.7553 1.67656L18.7518 1.67461L18.7459 1.67109L18.735 1.66484L18.7295 1.66172L18.726 1.65977L18.7201 1.65625L18.7131 1.65234L18.6967 1.64062L18.6904 1.63711L18.6748 1.62852L18.6689 1.625L18.6654 1.62305L18.6592 1.61953L18.6479 1.61328L18.6408 1.60938L18.6291 1.60273L18.6174 1.59609L18.6104 1.59219L18.5986 1.58555L18.5787 1.57461L18.5459 1.55664L18.5354 1.55078L18.526 1.54688ZM14.8662 0.223047L14.7193 0.990234C15.3189 1.10508 15.9084 1.2668 16.4826 1.47383L16.7479 0.739062C16.485 0.644141 16.2178 0.557813 15.9467 0.480078L15.9322 0.475781L15.9178 0.471875L15.91 0.46875L15.8959 0.464844L15.8818 0.460937H15.8752H15.8689H15.8623H15.8561H15.8494H15.8432H15.8373H15.8314H15.8264H15.8201H15.8146H15.8088H15.8068H15.801H15.7959H15.79H15.7881H15.7834H15.7814H15.776H15.7736H15.7686H15.7658H15.7611H15.7588H15.7533H15.751H15.7471H15.7447H15.7393H15.7365H15.7326H15.7287H15.7248H15.7221H15.7174H15.7139H15.7104H15.7076H15.7021H15.6994H15.6959H15.6924H15.6877H15.685H15.6811H15.6771H15.6736H15.6705H15.6658H15.6623H15.6592H15.6561H15.651H15.6479H15.6443L15.6201 0.390625H15.6166H15.6131H15.6104H15.6049H15.6025H15.599H15.5967H15.5908H15.5889H15.5818H15.5779H15.5709H15.567H15.56H15.5498L15.5385 0.371094L15.5307 0.369141H15.5264H15.5186L15.5006 0.361719L15.4865 0.358203L15.4775 0.35625L15.4631 0.351562L15.4486 0.349219L15.4252 0.343359L15.4107 0.339844L15.3967 0.336719C15.2943 0.3125 15.1916 0.289453 15.0889 0.267969L15.0498 0.260156L15.0369 0.257031L15.0225 0.253906H15.0139L14.9986 0.249219L14.9842 0.246094H14.9752H14.9705H14.9615L14.9463 0.238672L14.9318 0.234375H14.9232H14.917H14.9084L14.8936 0.228516L14.8857 0.226562H14.8814H14.8748H14.8662V0.223047ZM12.5029 0V0.78125C12.6361 0.78125 12.7689 0.783594 12.901 0.787891L12.9271 0.00664063C12.8396 0.00429688 12.7525 0.00195312 12.6646 0H12.5029V0Z" fill="#039500"/>
<path d="M13.5283 6.25H11.6304V18.9089H13.5283V6.25Z" fill="#039500"/>
<path d="M18.9089 11.6272H6.25V13.5251H18.9089V11.6272Z" fill="#039500"/>
</g>
<defs>
<clipPath id="clip0_929_1440">
<rect width="25" height="25" fill="white"/>
</clipPath>
</defs>
</svg>
